<svg width="78" height="78" viewBox="0 0 78 78" fill="none" xmlns="http://www.w3.org/2000/svg">
<path d="M9.75 19.5H14.625V24.375H9.75V19.5ZM9.75 29.25H14.625V34.125H9.75V29.25ZM48.75 24.375H43.875V19.5H48.75V24.375ZM78 29.25V73.125H19.5V48.75H0V4.875H58.5V29.25H78ZM73.125 34.125H24.375V55.0342L36.5625 42.8848L53.625 59.9092L65.8125 47.7598L73.125 55.0342V34.125ZM19.5 43.875V29.25H53.625V9.75H48.75V14.625H43.875V9.75H14.625V14.625H9.75V9.75H4.875V43.875H9.75V39H14.625V43.875H19.5ZM24.375 68.25H55.0342L36.5625 49.7402L24.375 61.9658V68.25ZM73.125 68.25V61.9658L65.8125 54.6152L57.0908 63.375L61.9658 68.25H73.125ZM56.0625 43.875C55.4023 43.875 54.8311 43.6338 54.3486 43.1514C53.8662 42.6689 53.625 42.0977 53.625 41.4375C53.625 40.7773 53.8662 40.2061 54.3486 39.7236C54.8311 39.2412 55.4023 39 56.0625 39C56.7227 39 57.2939 39.2412 57.7764 39.7236C58.2588 40.2061 58.5 40.7773 58.5 41.4375C58.5 42.0977 58.2588 42.6689 57.7764 43.1514C57.2939 43.6338 56.7227 43.875 56.0625 43.875Z" fill="white"/>
</svg>
