<svg width="88" height="46" viewBox="0 0 88 46" fill="none" xmlns="http://www.w3.org/2000/svg">
<path d="M1.59805 16.3301L2.64394 16.0977V8.65332L1.59805 8.4209L1.73476 7.75098H4.84512L4.98183 8.4209L3.94277 8.65332V12.4609L4.03848 12.502L7.75723 8.57129L7.00527 8.42773L7.14199 7.75098H9.6166L9.75332 8.4209L8.91933 8.65332L5.95937 11.7637L9.07656 16.0908L10.0746 16.3301L9.93789 17H8.26992L5.13223 12.6318L3.94277 13.8828V16.0977L4.98183 16.3301L4.84512 17H1.73476L1.59805 16.3301ZM24.0842 12.6045V16.1182H27.3723L27.9396 14.7988L28.6506 14.9561L28.4865 17H21.8762L21.7395 16.3301L22.7854 16.0977V8.65332L21.7395 8.4209L21.8762 7.75098H28.2814L28.4455 9.80176L27.7414 9.95215L27.174 8.63281H24.0842V11.7227H26.5246L26.757 10.8887L27.4338 11.0254V13.3086L26.757 13.4453L26.5246 12.6045H24.0842ZM43.4326 12.6045V16.1182H46.7207L47.2881 14.7988L47.999 14.9561L47.835 17H41.2246L41.0879 16.3301L42.1338 16.0977V8.65332L41.0879 8.4209L41.2246 7.75098H47.6299L47.7939 9.80176L47.0898 9.95215L46.5225 8.63281H43.4326V11.7227H45.873L46.1055 10.8887L46.7822 11.0254V13.3086L46.1055 13.4453L45.873 12.6045H43.4326ZM61.4686 8.65332L60.4227 8.4209L60.5594 7.75098H63.9842C64.9959 7.75098 65.7684 7.94238 66.3016 8.3252C66.8393 8.70345 67.1082 9.29818 67.1082 10.1094C67.1082 10.957 66.8256 11.6338 66.2605 12.1396C65.6954 12.641 64.9891 12.8916 64.1414 12.8916H62.7674V16.0977L64.2166 16.3301L64.0799 17H60.5594L60.4227 16.3301L61.4686 16.0977V8.65332ZM62.7674 8.63281V12.0098H63.8611C64.1938 12.0098 64.4992 11.9893 64.7771 11.9482C65.0551 11.9027 65.3195 11.8366 65.5701 11.75C65.643 11.5176 65.6954 11.2852 65.7273 11.0527C65.7638 10.8203 65.782 10.597 65.782 10.3828C65.782 9.84505 65.602 9.41895 65.242 9.10449C64.882 8.79004 64.3533 8.63281 63.6561 8.63281H62.7674ZM80.1881 8.65332L79.1422 8.4209L79.2789 7.75098H82.6422C83.5901 7.75098 84.3147 7.94466 84.816 8.33203C85.3173 8.71484 85.568 9.30273 85.568 10.0957C85.568 10.6882 85.4313 11.2054 85.1578 11.6475C84.8889 12.085 84.5198 12.4131 84.0504 12.6318L84.0094 12.7617L85.9029 16.0977L86.901 16.3301L86.7643 17H85.0621L82.7379 12.8916H81.4869V16.0977L82.526 16.3301L82.3893 17H79.2789L79.1422 16.3301L80.1881 16.0977V8.65332ZM81.4869 8.63281V12.0098H82.3277C82.6103 12.0098 82.8951 11.9893 83.1822 11.9482C83.4739 11.9072 83.761 11.8389 84.0436 11.7432C84.0937 11.5381 84.1393 11.3148 84.1803 11.0732C84.2213 10.8317 84.2418 10.5993 84.2418 10.376C84.2418 9.83366 84.0663 9.40755 83.7154 9.09766C83.3691 8.78776 82.8564 8.63281 82.1773 8.63281H81.4869Z" fill="white" fill-opacity="0.8"/>
<g clip-path="url(#clip0_660_106)">
<path d="M49.4095 29.8859L44.4986 32.25L39.5231 30.0308L41.8411 35.0395L39.6652 40.1141L44.5761 37.75L49.5515 39.9692L47.2336 34.9605L49.4095 29.8859Z" fill="white"/>
</g>
<path d="M34.7191 37.8659C35.8397 34.804 37.0852 33.1685 38.6417 32.7186C40.5817 32.1578 42.3825 33.5871 44.2883 35.0998C45.9808 36.4466 47.7342 37.8388 49.2339 37.4053C50.455 37.0523 51.5876 35.4682 52.6021 32.6967C52.6272 32.6325 52.686 32.5719 52.7656 32.5279C52.8453 32.4839 52.9395 32.46 53.028 32.4614C53.1165 32.4628 53.1922 32.4893 53.2389 32.5353C53.2856 32.5812 53.2995 32.643 53.2776 32.7072C52.1605 35.7681 50.9149 37.4036 49.3585 37.8535C47.4185 38.4143 45.6176 36.985 43.7118 35.4723C42.0193 34.1255 40.266 32.7333 38.7663 33.1668C37.5452 33.5198 36.4126 35.1039 35.3981 37.8754C35.3729 37.9396 35.3142 38.0002 35.2345 38.0442C35.1549 38.0882 35.0607 38.1121 34.9722 38.1107C34.8837 38.1093 34.808 38.0828 34.7613 38.0368C34.7146 37.9909 34.7007 37.9291 34.7226 37.8649L34.7191 37.8659Z" fill="white"/>
<defs>
<clipPath id="clip0_660_106">
<rect width="15.4024" height="15.4111" fill="white" transform="matrix(0.710286 0.703913 -0.68977 0.724029 44.3823 24)"/>
</clipPath>
</defs>
</svg>
