<svg width="67" height="67" viewBox="0 0 67 67" fill="none" xmlns="http://www.w3.org/2000/svg">
<path d="M50.25 16.75C50.25 16.1947 50.0294 15.6621 49.6368 15.2695C49.2441 14.8768 48.7115 14.6562 48.1562 14.6562C47.601 14.6562 47.0684 14.8768 46.6757 15.2695C46.2831 15.6621 46.0625 16.1947 46.0625 16.75V30.351L19.8194 15.1252C17.6419 13.8606 14.6562 15.3053 14.6562 18.0398V48.9603C14.6562 51.6947 17.6419 53.1394 19.8194 51.8747L46.0625 36.649V50.25C46.0625 50.8053 46.2831 51.3379 46.6757 51.7305C47.0684 52.1232 47.601 52.3438 48.1562 52.3438C48.7115 52.3438 49.2441 52.1232 49.6368 51.7305C50.0294 51.3379 50.25 50.8053 50.25 50.25V16.75ZM18.8438 19.4007L43.148 33.5L18.8438 47.5993V19.4007Z" fill="white"/>
</svg>
